<svg width="88" height="19" viewBox="0 0 88 19" fill="none" xmlns="http://www.w3.org/2000/svg">
<g clip-path="url(#clip0_1_2869)">
<path d="M16.9507 7.17846C16.9507 7.3278 16.8625 7.49072 16.686 7.66721L12.9898 11.2718L13.8655 16.3629C13.8723 16.4104 13.8757 16.4783 13.8757 16.5666C13.8757 16.7091 13.84 16.8296 13.7687 16.928C13.6975 17.0265 13.5939 17.0757 13.4582 17.0757C13.3292 17.0757 13.1934 17.035 13.0509 16.9535L8.47902 14.5505L3.90716 16.9535C3.75781 17.035 3.62205 17.0757 3.49986 17.0757C3.35731 17.0757 3.2504 17.0265 3.17912 16.928C3.10784 16.8296 3.0722 16.7091 3.0722 16.5666C3.0722 16.5258 3.07899 16.458 3.09257 16.3629L3.96825 11.2718L0.261882 7.66721C0.0921769 7.48393 0.00732422 7.32102 0.00732422 7.17846C0.00732422 6.9273 0.197394 6.77117 0.577534 6.71008L5.68906 5.96677L7.98009 1.33381C8.10906 1.05549 8.27537 0.916332 8.47902 0.916332C8.68267 0.916332 8.84898 1.05549 8.97795 1.33381L11.269 5.96677L16.3805 6.71008C16.7606 6.77117 16.9507 6.9273 16.9507 7.17846Z" fill="#004370"/>
</g>
<g clip-path="url(#clip1_1_2869)">
<path d="M40.3399 7.17846C40.3399 7.3278 40.2517 7.49072 40.0753 7.66721L36.3815 11.2718L37.2566 16.3629C37.2634 16.4104 37.2668 16.4783 37.2668 16.5666C37.2668 16.7091 37.2312 16.8296 37.1599 16.928C37.0887 17.0265 36.9852 17.0757 36.8496 17.0757C36.7207 17.0757 36.585 17.035 36.4425 16.9535L31.8736 14.5505L27.3046 16.9535C27.1553 17.035 27.0197 17.0757 26.8976 17.0757C26.7551 17.0757 26.6482 17.0265 26.577 16.928C26.5058 16.8296 26.4702 16.7091 26.4702 16.5666C26.4702 16.5258 26.477 16.458 26.4905 16.3629L27.3656 11.2718L23.6616 7.66721C23.492 7.48393 23.4072 7.32102 23.4072 7.17846C23.4072 6.9273 23.5972 6.77117 23.9771 6.71008L29.0854 5.96677L31.3749 1.33381C31.5038 1.05549 31.67 0.916332 31.8736 0.916332C32.0771 0.916332 32.2433 1.05549 32.3722 1.33381L34.6618 5.96677L39.77 6.71008C40.1499 6.77117 40.3399 6.9273 40.3399 7.17846Z" fill="#004370"/>
</g>
<g clip-path="url(#clip2_1_2869)">
<path d="M63.7339 7.17846C63.7339 7.3278 63.6457 7.49072 63.4692 7.66721L59.773 11.2718L60.6487 16.3629C60.6555 16.4104 60.6589 16.4783 60.6589 16.5666C60.6589 16.7091 60.6232 16.8296 60.5519 16.928C60.4807 17.0265 60.3771 17.0757 60.2414 17.0757C60.1124 17.0757 59.9766 17.035 59.8341 16.9535L55.2622 14.5505L50.6904 16.9535C50.541 17.035 50.4053 17.0757 50.2831 17.0757C50.1405 17.0757 50.0336 17.0265 49.9623 16.928C49.891 16.8296 49.8554 16.7091 49.8554 16.5666C49.8554 16.5258 49.8622 16.458 49.8758 16.3629L50.7515 11.2718L47.0451 7.66721C46.8754 7.48393 46.7905 7.32102 46.7905 7.17846C46.7905 6.9273 46.9806 6.77117 47.3607 6.71008L52.4723 5.96677L54.7633 1.33381C54.8923 1.05549 55.0586 0.916332 55.2622 0.916332C55.4659 0.916332 55.6322 1.05549 55.7612 1.33381L58.0522 5.96677L63.1637 6.71008C63.5438 6.77117 63.7339 6.9273 63.7339 7.17846Z" fill="#004370"/>
</g>
<g clip-path="url(#clip3_1_2869)">
<path d="M87.1333 7.17846C87.1333 7.3278 87.0451 7.49072 86.8686 7.66721L83.1724 11.2718L84.0481 16.3629C84.0549 16.4104 84.0583 16.4783 84.0583 16.5666C84.0583 16.7091 84.0226 16.8296 83.9514 16.928C83.8801 17.0265 83.7766 17.0757 83.6408 17.0757C83.5118 17.0757 83.3761 17.035 83.2335 16.9535L78.6616 14.5505L74.0898 16.9535C73.9404 17.035 73.8047 17.0757 73.6825 17.0757C73.5399 17.0757 73.433 17.0265 73.3617 16.928C73.2905 16.8296 73.2548 16.7091 73.2548 16.5666C73.2548 16.5258 73.2616 16.458 73.2752 16.3629L74.1509 11.2718L70.4445 7.66721C70.2748 7.48393 70.1899 7.32102 70.1899 7.17846C70.1899 6.9273 70.38 6.77117 70.7602 6.71008L75.8717 5.96677L78.1627 1.33381C78.2917 1.05549 78.458 0.916332 78.6616 0.916332C78.8653 0.916332 79.0316 1.05549 79.1606 1.33381L81.4516 5.96677L86.5631 6.71008C86.9433 6.77117 87.1333 6.9273 87.1333 7.17846Z" fill="#004370"/>
</g>
<defs>
<clipPath id="clip0_1_2869">
<rect width="16.9587" height="18.2467" fill="white" transform="matrix(1 0 0 -1 -0.00292969 18.838)"/>
</clipPath>
<clipPath id="clip1_1_2869">
<rect width="16.948" height="18.2467" fill="white" transform="matrix(1 0 0 -1 23.3965 18.838)"/>
</clipPath>
<clipPath id="clip2_1_2869">
<rect width="16.9587" height="18.2467" fill="white" transform="matrix(1 0 0 -1 46.7852 18.838)"/>
</clipPath>
<clipPath id="clip3_1_2869">
<rect width="16.9587" height="18.2467" fill="white" transform="matrix(1 0 0 -1 70.1846 18.838)"/>
</clipPath>
</defs>
</svg>
